<svg id="ART" xmlns="http://www.w3.org/2000/svg" xmlns:xlink="http://www.w3.org/1999/xlink" viewBox="0 0 48 48"><defs><style>.cls-1{fill:url(#linear-gradient);}.cls-2{fill:url(#linear-gradient-2);}.cls-3{fill:url(#linear-gradient-3);}.cls-4{fill:url(#linear-gradient-4);}.cls-5{fill:url(#linear-gradient-5);}.cls-6{fill:url(#linear-gradient-6);}.cls-7{fill:url(#linear-gradient-7);}.cls-8{fill:url(#linear-gradient-8);}.cls-9{fill:url(#linear-gradient-9);}.cls-10{fill:url(#linear-gradient-10);}.cls-11{fill:url(#linear-gradient-11);}.cls-12{fill:url(#linear-gradient-12);}.cls-13{fill:url(#linear-gradient-13);}</style><linearGradient id="linear-gradient" x1="24" y1="30.25" x2="24" y2="-4.26" gradientUnits="userSpaceOnUse"><stop offset="0" stop-color="#fff"/><stop offset="0.52" stop-color="#cce2e6"/><stop offset="1" stop-color="#8fa1bb"/></linearGradient><linearGradient id="linear-gradient-2" x1="24" y1="11.44" x2="24" y2="24.03" xlink:href="#linear-gradient"/><linearGradient id="linear-gradient-3" x1="24" y1="78.83" x2="24" y2="14.26" gradientUnits="userSpaceOnUse"><stop offset="0" stop-color="#27e9de"/><stop offset="0.52" stop-color="#03a4ec"/><stop offset="1" stop-color="#2547a8"/></linearGradient><linearGradient id="linear-gradient-4" y1="51.31" x2="24" y2="37.23" xlink:href="#linear-gradient-3"/><linearGradient id="linear-gradient-5" y1="11.75" x2="24" y2="28.7" xlink:href="#linear-gradient-3"/><linearGradient id="linear-gradient-6" y1="46.55" x2="24" y2="24.04" xlink:href="#linear-gradient-3"/><linearGradient id="linear-gradient-7" y1="36.75" x2="24" y2="26.33" xlink:href="#linear-gradient-3"/><linearGradient id="linear-gradient-8" x1="24" y1="44.33" x2="24" y2="13.99" gradientUnits="userSpaceOnUse"><stop offset="0" stop-color="#273a9b"/><stop offset="0.56" stop-color="#202f65"/><stop offset="1" stop-color="#021e2f"/></linearGradient><linearGradient id="linear-gradient-9" x1="9" y1="37.75" x2="9" y2="20.85" gradientUnits="userSpaceOnUse"><stop offset="0" stop-color="#f3c57a"/><stop offset="0.49" stop-color="#f39369"/><stop offset="1" stop-color="#e94867"/></linearGradient><linearGradient id="linear-gradient-10" x1="16.5" y1="36.83" x2="16.5" y2="25.29" xlink:href="#linear-gradient"/><linearGradient id="linear-gradient-11" x1="24" y1="36.83" x2="24" y2="25.29" xlink:href="#linear-gradient"/><linearGradient id="linear-gradient-12" x1="31.5" y1="36.83" x2="31.5" y2="25.29" xlink:href="#linear-gradient"/><linearGradient id="linear-gradient-13" x1="39" y1="36.83" x2="39" y2="25.29" xlink:href="#linear-gradient"/></defs><title>passwork, lock, pin, privacy, safety</title><path class="cls-1" d="M36,31.71H12V15A12,12,0,1,1,36,15ZM16.82,26.92H31.18V15a7.18,7.18,0,1,0-14.35,0Z"/><path class="cls-2" d="M36,18.19a3.46,3.46,0,0,0-1.1-.19H31.18v9.57H16.82V18H13.14a3.46,3.46,0,0,0-1.1.19V32.35H36Z"/><rect class="cls-3" x="9" y="21" width="30" height="24" rx="3.89" ry="3.89"/><rect class="cls-4" x="9" y="28.5" width="30" height="12"/><path class="cls-5" d="M12.89,21a3.88,3.88,0,0,0-3.68,2.67H38.78A3.88,3.88,0,0,0,35.11,21Z"/><path class="cls-6" d="M27.24,31.74A3.24,3.24,0,0,0,20.85,31a3.21,3.21,0,0,0,.63,2.81,1.72,1.72,0,0,1,.36,1.09v.48A2.16,2.16,0,0,0,24,37.5h0a2.16,2.16,0,0,0,2.16-2.16v-.48a1.78,1.78,0,0,1,.37-1.11A3.19,3.19,0,0,0,27.24,31.74Z"/><path class="cls-7" d="M27,32.88a3.23,3.23,0,0,0-3.88-2,3.2,3.2,0,0,0-2.16,2,3.24,3.24,0,0,0,.5.9,1.72,1.72,0,0,1,.36,1.09v.48a2.16,2.16,0,1,0,4.32,0v-.48a1.78,1.78,0,0,1,.37-1.11A3.24,3.24,0,0,0,27,32.88Z"/><rect class="cls-8" x="3" y="27" width="42" height="12" rx="2.6" ry="2.6"/><path class="cls-9" d="M10.67,33.1,10.5,33l.17-.1a.75.75,0,0,0-.75-1.3l-.17.1v-.2a.75.75,0,0,0-1.5,0v.2l-.17-.1a.75.75,0,1,0-.75,1.3l.17.1-.17.1a.75.75,0,1,0,.75,1.3l.17-.1v.2a.75.75,0,0,0,1.5,0v-.2l.17.1a.75.75,0,0,0,.75-1.3Z"/><path class="cls-10" d="M18.17,33.1,18,33l.17-.1a.75.75,0,0,0-.75-1.3l-.17.1v-.2a.75.75,0,0,0-1.5,0v.2l-.17-.1a.75.75,0,1,0-.75,1.3L15,33l-.17.1a.75.75,0,1,0,.75,1.3l.17-.1v.2a.75.75,0,0,0,1.5,0v-.2l.17.1a.75.75,0,0,0,.75-1.3Z"/><path class="cls-11" d="M25.67,33.1,25.5,33l.17-.1a.75.75,0,0,0-.75-1.3l-.17.1v-.2a.75.75,0,0,0-1.5,0v.2l-.17-.1a.75.75,0,1,0-.75,1.3l.17.1-.17.1a.75.75,0,1,0,.75,1.3l.17-.1v.2a.75.75,0,0,0,1.5,0v-.2l.17.1a.75.75,0,0,0,.75-1.3Z"/><path class="cls-12" d="M33.17,33.1,33,33l.17-.1a.75.75,0,0,0-.75-1.3l-.17.1v-.2a.75.75,0,0,0-1.5,0v.2l-.17-.1a.75.75,0,1,0-.75,1.3L30,33l-.17.1a.75.75,0,1,0,.75,1.3l.17-.1v.2a.75.75,0,0,0,1.5,0v-.2l.17.1a.75.75,0,0,0,.75-1.3Z"/><path class="cls-13" d="M40.67,33.1,40.5,33l.17-.1a.75.75,0,0,0-.75-1.3l-.17.1v-.2a.75.75,0,0,0-1.5,0v.2l-.17-.1a.75.75,0,1,0-.75,1.3l.17.1-.17.1a.75.75,0,1,0,.75,1.3l.17-.1v.2a.75.75,0,0,0,1.5,0v-.2l.17.1a.75.75,0,0,0,.75-1.3Z"/></svg>